<svg xmlns="http://www.w3.org/2000/svg" viewBox="0 0 96 96"><defs><style>.cls-1{isolation:isolate;}.cls-2{fill:none;}.cls-3,.cls-4,.cls-5{fill:#65b441;}.cls-4{mix-blend-mode:multiply;}.cls-5{mix-blend-mode:color-dodge;}</style></defs><title>obstacle_Fichier 29</title><g class="cls-1"><g id="Calque_2" data-name="Calque 2"><g id="Calque_1-2" data-name="Calque 1"><rect class="cls-2" width="96" height="96"/><path class="cls-3" d="M70.8,54.55a5.72,5.72,0,0,0,2.39-3.91c.26-1.32-.89-2.92-1.89-3.64A9.57,9.57,0,0,0,70,46.2a2.38,2.38,0,0,0-.4-2.19,3.93,3.93,0,0,0-.78-.85c2.77-1.52,4.94-4,3.4-6.41a7.82,7.82,0,0,0-5.76-3.37,7,7,0,0,0-3,.31,3.89,3.89,0,0,0,.39-3,2.41,2.41,0,0,0-2.72-1.2c0-.11,0-.22.06-.32.24-1.41-.1-3.35-1.43-4.19-2.37-1.48-4.52-.15-6.06,2,0-.48-.13-.94-.21-1.33-.73-3.25-5-3.06-7.33-1.86a4.81,4.81,0,0,0-1.51,1.27l-.07.08a8.83,8.83,0,0,0-1.45,3c-1.53-2.8-4-4.88-6.77-3.16-1.34.84-1.67,2.78-1.43,4.19,0,.1,0,.21.06.32a2.41,2.41,0,0,0-2.72,1.2,3.89,3.89,0,0,0,.39,3,7,7,0,0,0-3-.31,7.82,7.82,0,0,0-5.76,3.37c-1.54,2.44.63,4.89,3.4,6.41a3.93,3.93,0,0,0-.78.85A2.38,2.38,0,0,0,26,46.2a9.67,9.67,0,0,0-1.34.8c-1,.72-2.14,2.32-1.89,3.64a5.76,5.76,0,0,0,2.4,3.91,6.09,6.09,0,0,0-2.4,5.84,3.6,3.6,0,0,0,3.1,2.76,2.31,2.31,0,0,0-.15,1.5c.23.92,1.54.73,2.17.51h0c-1,1.35-1.76,3-.9,4.37,1.23,2,3.81,1.52,5.52.54-.35,1-.33,1.86.53,2.32,1.24.66,3.17-.23,4.43-1A5.92,5.92,0,0,0,41,72.82a6.13,6.13,0,0,0,3.52-.94,2.27,2.27,0,0,0,1,.85c1.69.81,3.95-.36,5.42-1.31A6.17,6.17,0,0,0,55,72.82a5.87,5.87,0,0,0,3.46-1.43c1.27.77,3.2,1.66,4.44,1,.86-.46.88-1.33.53-2.32,1.71,1,4.29,1.46,5.52-.54.86-1.42.08-3-.9-4.37h0c.63.22,1.94.41,2.17-.51a2.25,2.25,0,0,0-.16-1.5,3.6,3.6,0,0,0,3.11-2.76A6.09,6.09,0,0,0,70.8,54.55Z"/><path class="cls-4" d="M70.8,54.55a5.72,5.72,0,0,0,2.39-3.91c.26-1.32-.89-2.92-1.89-3.64A9.57,9.57,0,0,0,70,46.2a2.38,2.38,0,0,0-.4-2.19,3.93,3.93,0,0,0-.78-.85c2.77-1.52,4.94-4,3.4-6.41a7.82,7.82,0,0,0-5.76-3.37,7,7,0,0,0-3,.31,3.89,3.89,0,0,0,.39-3,2.41,2.41,0,0,0-2.72-1.2c0-.11,0-.22.06-.32.24-1.41-.1-3.35-1.43-4.19-2.37-1.48-4.52-.15-6.06,2,0-.48-.13-.94-.21-1.33-.73-3.25-5-3.06-7.33-1.86a4.81,4.81,0,0,0-1.51,1.27l-.07.08a8.83,8.83,0,0,0-1.45,3c-1.53-2.8-4-4.88-6.77-3.16-1.34.84-1.67,2.78-1.43,4.19,0,.1,0,.21.06.32a2.41,2.41,0,0,0-2.72,1.2,3.89,3.89,0,0,0,.39,3,7,7,0,0,0-3-.31,7.82,7.82,0,0,0-5.76,3.37c-1.54,2.44.63,4.89,3.4,6.41a3.93,3.93,0,0,0-.78.85A2.38,2.38,0,0,0,26,46.2a9.67,9.67,0,0,0-1.34.8c-1,.72-2.14,2.32-1.89,3.64a5.76,5.76,0,0,0,2.4,3.91,6.09,6.09,0,0,0-2.4,5.84,3.6,3.6,0,0,0,3.1,2.76,2.31,2.31,0,0,0-.15,1.5c.23.92,1.54.73,2.17.51h0c-1,1.35-1.76,3-.9,4.37,1.23,2,3.81,1.52,5.52.54-.35,1-.33,1.86.53,2.32,1.24.66,3.17-.23,4.43-1A5.92,5.92,0,0,0,41,72.82a6.13,6.13,0,0,0,3.52-.94,2.27,2.27,0,0,0,1,.85c1.69.81,3.95-.36,5.42-1.31A6.17,6.17,0,0,0,55,72.82a5.87,5.87,0,0,0,3.46-1.43c1.27.77,3.2,1.66,4.44,1,.86-.46.88-1.33.53-2.32,1.71,1,4.29,1.46,5.52-.54.86-1.42.08-3-.9-4.37h0c.63.22,1.94.41,2.17-.51a2.25,2.25,0,0,0-.16-1.5,3.6,3.6,0,0,0,3.11-2.76A6.09,6.09,0,0,0,70.8,54.55Zm-7.15-6.76c1.76,2,1,4.67-.92,6.26a7.16,7.16,0,0,1-8.24.33,8,8,0,0,1-1.22-1.09c-.49,1.75-1.64,3.15-3.69,3a4.68,4.68,0,0,1-4.36-3.7c-1,2.41-3,4.51-5.47,4.95-1.65.29-3.55.06-4.4-1.57a3.41,3.41,0,0,1-.15-2.42c-1.06.94-2.37,1.58-3.21.24a1.59,1.59,0,0,1-.16-.43c-2.14,1.43-4.67,2.06-6-.62-1.16-2.22.63-4.38,2.82-5.64a1.1,1.1,0,0,1-.7-.35,1.63,1.63,0,0,1,.09-2A5.21,5.21,0,0,1,30.49,43c-2.38-1.17-4.65-3.25-3.21-5.61,1.68-2.75,4-2.51,6-1.14a2.71,2.71,0,0,1,.11-.51c.49-1.4,1.47-1.37,2.38-.82a6.84,6.84,0,0,1-.11-3.77c.52-1.74,2.31-3.38,4.26-2.63,1.62.61,2.59,2.31,3.08,4.24a9.65,9.65,0,0,1,2.43-3.62c1.37-1.22,3.69-1.92,5-.27a6,6,0,0,1,1.15,2.42,2.53,2.53,0,0,1,1.92-.73c1.38.13,1.81,1.24,1.69,2.42a6.35,6.35,0,0,1,2.93-1.25A2.42,2.42,0,0,1,61,33.75a8.65,8.65,0,0,1-1.47,4.66c1.95-.72,4.46-1.23,5.81.3,2.54,2.88-.59,6.3-3.17,8A4.58,4.58,0,0,1,63.65,47.79Z"/><path class="cls-4" d="M70.8,54.55a5.72,5.72,0,0,0,2.39-3.91c.26-1.32-.89-2.92-1.89-3.64a9.06,9.06,0,0,0-.77-.49,2.75,2.75,0,0,0-.4,0,5.35,5.35,0,0,1,1.24,3.82,5.23,5.23,0,0,1-3,3.88,8.13,8.13,0,0,1-2,.65c1.37.82,3.28,2.27,2.81,4.07s-2.46,2.22-4.58,1.84a1.66,1.66,0,0,1-.38,2.26c-1.18,1-2.63.27-3.92-.78a7,7,0,0,1,0,1.71,3.43,3.43,0,0,1-2.75,3.22c-3.13.4-4.89-2.07-6.17-4.67.06,1.81-.23,3.94-2,3.77S47,64.48,46.58,62.71c-.94,2.17-2.83,4-4.8,3.87A2.86,2.86,0,0,1,39.16,64a8.05,8.05,0,0,1-2.23,2.75c-1.07.77-3.07,1.14-3.83-.34a3.31,3.31,0,0,1,0-2.72c-1.16,1-2.53,1.7-3.27.61a2.89,2.89,0,0,1-.23-2.88,5.94,5.94,0,0,1-2.75.63C25.1,62,24.28,60.76,24,59.15a5.65,5.65,0,0,1,1.63-4.84c-.14.08-.3.15-.44.24h0a6.09,6.09,0,0,0-2.4,5.84,3.6,3.6,0,0,0,3.1,2.76,2.31,2.31,0,0,0-.15,1.5c.23.92,1.54.73,2.17.51h0c-1,1.35-1.76,3-.9,4.37,1.23,2,3.81,1.52,5.52.54-.35,1-.33,1.86.53,2.32,1.24.66,3.17-.23,4.43-1A5.92,5.92,0,0,0,41,72.82a6.13,6.13,0,0,0,3.52-.94,2.27,2.27,0,0,0,1,.85c1.69.81,3.95-.36,5.42-1.31A6.17,6.17,0,0,0,55,72.82a5.87,5.87,0,0,0,3.46-1.43c1.27.77,3.2,1.66,4.44,1,.86-.46.88-1.33.53-2.32,1.71,1,4.29,1.46,5.52-.54.86-1.42.08-3-.9-4.37h0c.63.22,1.94.41,2.17-.51a2.25,2.25,0,0,0-.16-1.5,3.6,3.6,0,0,0,3.11-2.76A6.09,6.09,0,0,0,70.8,54.55Z"/><path class="cls-5" d="M32.1,37.27c-.25-.59-.86-.9-1.91-.5-1.34.51-2.27,2.73-1.14,3.89C30.64,42.29,32.68,38.66,32.1,37.27Z"/><path class="cls-5" d="M30.36,50.43c-.13-.32-.46-.49-1-.27a1.41,1.41,0,0,0-.62,2.1C29.57,53.15,30.68,51.18,30.36,50.43Z"/><path class="cls-5" d="M37.05,62.87c-.14-.32-.47-.48-1-.27a1.42,1.42,0,0,0-.61,2.11C36.26,65.59,37.36,63.62,37.05,62.87Z"/><path class="cls-5" d="M32.43,59.76c0-.12-.17-.18-.38-.1s-.45.54-.22.77S32.54,60,32.43,59.76Z"/><path class="cls-5" d="M44.22,47.38c-1.72-.86-3.44,1.75-3.69,3.12-.31,1.75,1,2.59,2.47,1.67C44.11,51.49,46.14,48.33,44.22,47.38Z"/><path class="cls-5" d="M64.65,58c-.66-.32-1.33.68-1.42,1.21s.37,1,1,.63C64.6,59.54,65.38,58.33,64.65,58Z"/><path class="cls-5" d="M57.88,34.26c-1.19-.59-2.38,1.21-2.55,2.16-.22,1.21.66,1.8,1.7,1.16C57.8,37.11,59.21,34.92,57.88,34.26Z"/></g></g></g></svg>