<svg xmlns="http://www.w3.org/2000/svg" xmlns:xlink="http://www.w3.org/1999/xlink" viewBox="0 0 76.16 93"><defs><style>.cls-1{fill:none;}.cls-2{clip-path:url(#clip-path);}.cls-3{opacity:0.3;}.cls-4{fill:#c4c6c8;}.cls-5{isolation:isolate;}.cls-6{fill:#767769;}.cls-7{fill:#e0e0e0;}.cls-8{fill:#e22b26;}.cls-9{fill:#5e6b69;}.cls-10{fill:#d3d1d3;}.cls-11{fill:#e9e9ea;}.cls-12{fill:#e9ecf2;}.cls-13{fill:#f0beb4;}.cls-14{fill:#991d1a;}.cls-15{fill:#e6bb30;}.cls-16{fill:#ffe89b;}.cls-17{fill:#fbcc34;}.cls-18{fill:#efeff0;}.cls-19{fill:#b0acb0;}.cls-20{fill:#7d8589;}.cls-21{fill:#d9d4d9;}.cls-22{fill:#c9c5c9;}.cls-23{fill:#dbdbdb;}.cls-24{fill:#c0bec2;}.cls-25{fill:#d1d2d3;}</style><clipPath id="clip-path" transform="translate(-8.34 -1.5)"><rect class="cls-1" width="96" height="96"/></clipPath></defs><title>RedCharacter_Fichier 21</title><g id="Calque_2" data-name="Calque 2"><g id="Calque_1-2" data-name="Calque 1"><g class="cls-2"><g id="_Groupe_" data-name="&lt;Groupe&gt;"><path id="_Tracé_" data-name="&lt;Tracé&gt;" class="cls-3" d="M23.12,83.49c0,5.53,5.92,13.9,16.43,10,3.58-1.32,2.44-5,5.19-7.15,3.53-2.82,8.36-.89,10-3.26,2.84-4.2-4.42-9.63-14.09-9.63S23.12,78,23.12,83.49Z" transform="translate(-8.34 -1.5)"/><g id="_Groupe_2" data-name="&lt;Groupe&gt;"><g id="_Groupe_3" data-name="&lt;Groupe&gt;"><path id="_Tracé_2" data-name="&lt;Tracé&gt;" class="cls-4" d="M44.78,9.84l.4,2.34-.33.44s-.46-.33-.46-.58-.34-2.2-.34-2.2Z" transform="translate(-8.34 -1.5)"/><g id="_Groupe_4" data-name="&lt;Groupe&gt;"><g id="_Groupe_5" data-name="&lt;Groupe&gt;" class="cls-5"><path id="_Tracé_3" data-name="&lt;Tracé&gt;" class="cls-6" d="M23.57,25.65a.36.36,0,0,0-.37,0,1.16,1.16,0,0,0-.51.89.38.38,0,0,0,.15.34l29.93,17.3a.37.37,0,0,1-.15-.33,1.12,1.12,0,0,1,.52-.89.36.36,0,0,1,.37,0Z" transform="translate(-8.34 -1.5)"/><g id="_Groupe_6" data-name="&lt;Groupe&gt;"><path id="_Tracé_4" data-name="&lt;Tracé&gt;" class="cls-7" d="M53.14,43c.28-.17.51,0,.52.29a1.12,1.12,0,0,1-.52.89.32.32,0,0,1-.52-.29A1.12,1.12,0,0,1,53.14,43Z" transform="translate(-8.34 -1.5)"/></g></g></g><g id="_Groupe_7" data-name="&lt;Groupe&gt;"><g id="_Groupe_8" data-name="&lt;Groupe&gt;"><path id="_Tracé_5" data-name="&lt;Tracé&gt;" class="cls-8" d="M33.93,21.17S26.83,37.94,22,44s-11,33.3-13.68,35.54c0,0,5.35,1.31,13.87-4.08S39,70.3,43.73,68.26s4.35-3,4.35-3l.63-43.39S40.77,8.31,33.93,21.17Z" transform="translate(-8.34 -1.5)"/><path id="_Tracé_6" data-name="&lt;Tracé&gt;" class="cls-9" d="M48.08,56.23c-.38,1.05-2.87,5.46-3.18,6.82s.19,11.47.19,11.47h-4.3L40,62.89l.16-4.09-4.72,9.26s-1.57,2.2-1.67,2.51c0,.09-.16,1-.33,2.37C33,76.56,32.21,83,32.21,83H28.13l.21-10.86.05-2.45,2.15-3.59s1.88-11.15,2-14.5a15,15,0,0,1,1.95-6.39l13.08-2.17S48.45,55.18,48.08,56.23Z" transform="translate(-8.34 -1.5)"/><g id="_Groupe_9" data-name="&lt;Groupe&gt;"><path id="_Tracé_7" data-name="&lt;Tracé&gt;" class="cls-10" d="M50,51.94h0l-3.59,2.71s-.94-8.56-.61-8.88a6.88,6.88,0,0,0,.59-.88l0,0c.59-1,1.34-2.3,1.34-2.3l2,8.31Z" transform="translate(-8.34 -1.5)"/><path id="_Tracé_8" data-name="&lt;Tracé&gt;" class="cls-11" d="M50,51.94h0l-3.59,2.71s-.94-8.56-.61-8.88l.59-.88,0,0,.8,7.55,2.54-1.54Z" transform="translate(-8.34 -1.5)"/></g><polygon id="_Tracé_9" data-name="&lt;Tracé&gt;" class="cls-10" points="32.02 45.49 31.25 58.42 34.12 61.13 37.99 57.59 37.43 44.28 32.02 45.49"/><polygon id="_Tracé_10" data-name="&lt;Tracé&gt;" class="cls-11" points="33.1 45.38 32.02 57.95 33.69 59.71 34.29 59.07 34.66 59.71 37.3 57.24 36.74 44.68 33.1 45.38"/><g id="_Groupe_10" data-name="&lt;Groupe&gt;"><polygon id="_Tracé_11" data-name="&lt;Tracé&gt;" class="cls-11" points="23.07 57 22.77 61.13 27.13 62.49 28.82 58.73 23.07 57"/><g id="_Groupe_11" data-name="&lt;Groupe&gt;"><polygon id="_Tracé_12" data-name="&lt;Tracé&gt;" class="cls-10" points="23.47 50.89 22.63 56.82 29.81 59.71 29.81 53.87 23.47 50.89"/><polygon id="_Tracé_13" data-name="&lt;Tracé&gt;" class="cls-11" points="24.74 51.49 23.75 56.29 28.82 57.95 28.6 53.3 29.81 53.87 29.81 59.71 22.63 56.82 23.47 50.89 24.74 51.49"/></g><path id="_Tracé_14" data-name="&lt;Tracé&gt;" class="cls-10" d="M40.54,46.94l-1.78,7.18-7.35-3.57s1.31-5.16,3.06-5.31S40.54,46.94,40.54,46.94Z" transform="translate(-8.34 -1.5)"/><polygon id="_Tracé_15" data-name="&lt;Tracé&gt;" class="cls-11" points="23.07 49.05 30.42 52.62 31.2 45.09 32.2 45.44 31.23 54.54 22.94 50.64 23.07 49.05"/><polygon id="_Tracé_16" data-name="&lt;Tracé&gt;" class="cls-10" points="23.98 57.36 23.67 60.38 26.57 61.13 27.57 58.81 23.98 57.36"/></g><path id="_Tracé_17" data-name="&lt;Tracé&gt;" class="cls-9" d="M45.08,18.75s2-.73,3,1.84.77,10.21.77,10.21,4.12,7.67,4.53,8.61-2,2.07-2,2.07l-3.28-4.19Z" transform="translate(-8.34 -1.5)"/><polygon id="_Tracé_18" data-name="&lt;Tracé&gt;" class="cls-11" points="44.98 38.41 45.78 39.73 48.08 41.27 48.38 44.94 47.52 45.49 44.98 45.03 44.63 43.01 43.58 42.73 43.38 39.76 44.98 38.41"/><path id="_Tracé_19" data-name="&lt;Tracé&gt;" class="cls-10" d="M32.94,35.76l1.53,2.05v7.32l3.71,1.36s4.6,1,6.9-.31,3-4.86,3-4.86S48.32,26,47.17,21s-11.75-2.92-15.29,2.28S32.94,35.76,32.94,35.76Z" transform="translate(-8.34 -1.5)"/><path id="_Tracé_20" data-name="&lt;Tracé&gt;" class="cls-10" d="M36.38,33.31l1.77,3.77.73,7.78s3.2,1.54,5.95.37a4,4,0,0,0,2.56-3.75l.47-14-.79-1.26s-7.31,1.62-8.22,3S35.54,31.53,36.38,33.31Z" transform="translate(-8.34 -1.5)"/><path id="_Tracé_21" data-name="&lt;Tracé&gt;" class="cls-11" d="M37.31,33.75l1.48,3.14,1,8.57a6.81,6.81,0,0,0,5,.32,3.32,3.32,0,0,0,2.14-3.14l0-13.75-.67-1.06s-6.1,1.36-6.85,2.48S36.61,32.26,37.31,33.75Z" transform="translate(-8.34 -1.5)"/><path id="_Tracé_22" data-name="&lt;Tracé&gt;" class="cls-11" d="M40.79,74.52,40.16,78l1.84.57v-.68l1.72.68.79,1.36a28.89,28.89,0,0,0,4.08.89c.79,0,2.63-.92,2.51-1.88s-4.55-2.64-5.46-3.4-.56-1-.56-1Z" transform="translate(-8.34 -1.5)"/><path id="_Tracé_23" data-name="&lt;Tracé&gt;" class="cls-8" d="M38,31h0a7.26,7.26,0,0,0,8.92-2.92l.49-.93L46.6,21l-2.92-3.17-9,2.88-2.61,1.59Z" transform="translate(-8.34 -1.5)"/><path id="_Tracé_24" data-name="&lt;Tracé&gt;" class="cls-9" d="M35.93,17.82v2.72s3.66,4.66,5.33,4.35,1.89-.84,1.89-.84l-.53-3.87Z" transform="translate(-8.34 -1.5)"/><path id="_Tracé_25" data-name="&lt;Tracé&gt;" class="cls-9" d="M31.88,23.39a7.22,7.22,0,0,0-3.54,5.21c-.54,3.69-.42,6.49-.74,6.91a17.08,17.08,0,0,0-1.88,3c-.21.74.27,8.53.73,14.45L30,54s-.35-12.67,0-13.39,3.26-4.45,3.93-7.35S35.22,28.23,31.88,23.39Z" transform="translate(-8.34 -1.5)"/><polygon id="_Tracé_26" data-name="&lt;Tracé&gt;" class="cls-11" points="22.23 55.3 22.23 57.59 18.67 56.48 18.67 55.95 18.11 55.57 18.11 51.49 21.67 52.53 23.21 54.54 22.86 55.95 22.23 55.3"/><path id="_Tracé_27" data-name="&lt;Tracé&gt;" class="cls-12" d="M30.82,24.82a6.91,6.91,0,0,0-2.69,5.09c0,3.16,3.44,2.76,4.63,2.29S37.32,25.2,30.82,24.82Z" transform="translate(-8.34 -1.5)"/><path id="_Tracé_28" data-name="&lt;Tracé&gt;" class="cls-11" d="M24.91,45.78,26.45,53S30,54.47,30,54s1-8.64,1-8.64L27.24,42Z" transform="translate(-8.34 -1.5)"/><path id="_Tracé_29" data-name="&lt;Tracé&gt;" class="cls-11" d="M47.86,27.49l-2.78-2.11-1.71-5.2-.22-.68H43a1.81,1.81,0,0,1-.72,0c-.46-.16-.68-.7.84-2.33s3.93-1.25,5.22-.83a10.52,10.52,0,0,1,2.56,3.52C51.83,22,51.8,24.88,47.86,27.49Z" transform="translate(-8.34 -1.5)"/><path id="_Tracé_30" data-name="&lt;Tracé&gt;" class="cls-10" d="M47.86,27.49l-2.78-2.11-1.71-5.2a4.81,4.81,0,0,0,3.82,2.52c2.06.15,3.17-1.54,3.74-2.87C51.83,22,51.8,24.88,47.86,27.49Z" transform="translate(-8.34 -1.5)"/><path id="_Tracé_31" data-name="&lt;Tracé&gt;" class="cls-13" d="M44,8.61a6.7,6.7,0,0,0-6.85-3.82c-5,.37-6.37,7.19-3.66,10.15s2.46,2.88,2.46,2.88l6.69,2.36,1.94-.47A23.08,23.08,0,0,0,44,8.61Z" transform="translate(-8.34 -1.5)"/><g id="_Groupe_12" data-name="&lt;Groupe&gt;"><polygon id="_Tracé_32" data-name="&lt;Tracé&gt;" class="cls-11" points="45.78 39.73 43.59 33.03 41.3 32.02 39.73 35.79 43.45 40.81 45.78 39.73"/></g><path id="_Tracé_33" data-name="&lt;Tracé&gt;" class="cls-11" d="M34.88,90.56c-.16.79-2.52.94-2.67.94s-2.2-.63-2.2-.63-2.19-5.6-2.19-5.75.31-2.09.31-2.09l-.7-10.63,4.12-3.23,2.59,3.28C33.67,76.07,32.21,83,32.21,83a13,13,0,0,0,1.47,3.18A7.55,7.55,0,0,1,34.88,90.56Z" transform="translate(-8.34 -1.5)"/><g id="_Groupe_13" data-name="&lt;Groupe&gt;"><polygon id="_Tracé_34" data-name="&lt;Tracé&gt;" class="cls-11" points="31.9 64.9 31.9 73.02 36.74 73.02 37.99 61.55 31.9 64.9"/></g><polygon id="_Tracé_35" data-name="&lt;Tracé&gt;" class="cls-10" points="38.77 52.62 38.9 58.78 41.3 54.54 40.95 50.97 38.77 52.62"/><polygon id="_Tracé_36" data-name="&lt;Tracé&gt;" class="cls-11" points="39.33 52.2 39.5 56.3 41.19 53.42 41.3 54.54 38.9 58.78 38.77 52.62 39.33 52.2"/><path id="_Tracé_37" data-name="&lt;Tracé&gt;" class="cls-11" d="M49.3,56.64l.85,3.64s-2.38,2.4-2.41,2.35-.27-2.76-.27-2.76Z" transform="translate(-8.34 -1.5)"/><path id="_Tracé_38" data-name="&lt;Tracé&gt;" class="cls-10" d="M47.89,59.14a17.16,17.16,0,0,0,.28,2.1L49.47,60l-.59-2.61Z" transform="translate(-8.34 -1.5)"/><path id="_Tracé_39" data-name="&lt;Tracé&gt;" class="cls-9" d="M34.47,44l1.46.53s5.45.84,7.24.4c3-.73,4.94-4.2,4.94-4.2l.12,2.51S48,45.52,43.7,46.78s-10.08-1.05-10.08-1.05l-.06-1.45a3.4,3.4,0,0,1,.62-2.09h0Z" transform="translate(-8.34 -1.5)"/><g id="_Groupe_14" data-name="&lt;Groupe&gt;"><g id="_Groupe_15" data-name="&lt;Groupe&gt;"><path id="_Tracé_40" data-name="&lt;Tracé&gt;" class="cls-10" d="M44.82,43.49c.83-.48,1.51-.1,1.51.86a3.29,3.29,0,0,1-1.5,2.6c-.83.48-1.51.1-1.51-.86A3.31,3.31,0,0,1,44.82,43.49Z" transform="translate(-8.34 -1.5)"/></g><g id="_Groupe_16" data-name="&lt;Groupe&gt;"><path id="_Tracé_41" data-name="&lt;Tracé&gt;" class="cls-11" d="M44.82,44.08c.55-.32,1-.07,1,.57a2.16,2.16,0,0,1-1,1.71c-.55.32-1,.07-1-.56A2.17,2.17,0,0,1,44.82,44.08Z" transform="translate(-8.34 -1.5)"/></g></g><polygon id="_Tracé_42" data-name="&lt;Tracé&gt;" class="cls-9" points="25.84 40.69 26.13 40.69 26.13 42.49 25.84 40.69"/><path id="_Tracé_43" data-name="&lt;Tracé&gt;" class="cls-8" d="M35.93,18.66s3.22,5.07,5.63,4.19,1.06-2.67,1.06-2.67l.69-.17s1.45,4.07-.5,4.81-7.22.36-8.88-3.65Z" transform="translate(-8.34 -1.5)"/><path id="_Tracé_44" data-name="&lt;Tracé&gt;" class="cls-11" d="M40.36,27.56l-4,5.75C28.62,36,26.32,30.07,26.32,30.07l.37-1.37,1.14-4.16A1.77,1.77,0,0,1,28,24a6.47,6.47,0,0,1,3.34-2.7,4.06,4.06,0,0,1,4,.49A17.26,17.26,0,0,1,40,27h0C40.25,27.35,40.36,27.56,40.36,27.56Z" transform="translate(-8.34 -1.5)"/><path id="_Tracé_45" data-name="&lt;Tracé&gt;" class="cls-10" d="M40.36,27.56l-4,5.75C28.62,36,26.32,30.07,26.32,30.07l.37-1.37c.69,1.47,2.57,3.74,7.4,2.37,6.87-1.95,1.22-9.21,1.22-9.21v-.05A17.26,17.26,0,0,1,40,27h0C40.25,27.35,40.36,27.56,40.36,27.56Z" transform="translate(-8.34 -1.5)"/><path id="_Tracé_46" data-name="&lt;Tracé&gt;" class="cls-14" d="M39.27,24s.85,1.25,2,.87a8.83,8.83,0,0,0,2.3-1.3s-1.65,1.9-2.35,1.93S39,24,39,24" transform="translate(-8.34 -1.5)"/><path id="_Tracé_47" data-name="&lt;Tracé&gt;" class="cls-8" d="M45.38,25.68s-2.76,4.15-6.84,4.39c0,0,3.34,1.08,7.64-3.57Z" transform="translate(-8.34 -1.5)"/><path id="_Tracé_48" data-name="&lt;Tracé&gt;" class="cls-14" d="M44.42,26.87s-2.68,1.32-4.77.68l-.08.71A10.11,10.11,0,0,0,44.42,26.87Z" transform="translate(-8.34 -1.5)"/><g id="_Groupe_17" data-name="&lt;Groupe&gt;"><g id="_Groupe_18" data-name="&lt;Groupe&gt;"><path id="_Tracé_transparent_" data-name="&lt;Tracé transparent&gt;" class="cls-15" d="M39.25,26.51a.59.59,0,0,1,1.11.18,2.18,2.18,0,0,1-.31,1.93.6.6,0,0,1-1.12-.18A2.15,2.15,0,0,1,39.25,26.51Zm.67,1.77A1.43,1.43,0,0,0,40.13,27c-.15-.4-.49-.45-.76-.12a1.46,1.46,0,0,0-.21,1.31c.15.4.49.45.76.12" transform="translate(-8.34 -1.5)"/></g><g id="_Groupe_19" data-name="&lt;Groupe&gt;" class="cls-5"><g id="_Groupe_20" data-name="&lt;Groupe&gt;"><path id="_Tracé_49" data-name="&lt;Tracé&gt;" class="cls-16" d="M39.37,26.85c.27-.33.61-.28.76.12a1.43,1.43,0,0,1-.21,1.31c-.27.33-.61.28-.76-.12A1.46,1.46,0,0,1,39.37,26.85Z" transform="translate(-8.34 -1.5)"/></g><g id="_Groupe_21" data-name="&lt;Groupe&gt;"><path id="_Tracé_transparent_2" data-name="&lt;Tracé transparent&gt;" class="cls-17" d="M40.78,26.83a.6.6,0,0,1,.1.31,1.09,1.09,0,0,1-.2.71.43.43,0,0,1-.2.14h-.11s0,.06,0,.09l.06.11a1.07,1.07,0,0,1-.16.95.08.08,0,0,1,0,0,.27.27,0,0,1-.22.09c-.24,0-.3-.18-.33-.36l-.06,0a.9.9,0,0,1,0,.16,1,1,0,0,1-.15.29c-.14.16-.31.21-.44.09a.56.56,0,0,1-.13-.28,1,1,0,0,1,.08-.71v-.08a.31.31,0,0,1-.1.05c-.24.07-.42-.2-.4-.6a1.18,1.18,0,0,1,.1-.38,1.21,1.21,0,0,1,.14-.22.29.29,0,0,1,.27-.13L39,27a.24.24,0,0,1-.06-.11A1.07,1.07,0,0,1,39,26s0,0,0,0a.25.25,0,0,1,.23-.09c.23,0,.29.18.32.36l.06,0a.94.94,0,0,1,0-.16.72.72,0,0,1,.15-.29.47.47,0,0,1,.1-.1c.27-.18.51.16.48.62a1,1,0,0,1-.1.38v0l0,0C40.5,26.64,40.62,26.61,40.78,26.83Zm-.73,1.79a2.18,2.18,0,0,0,.31-1.93.59.59,0,0,0-1.11-.18,2.15,2.15,0,0,0-.32,1.93.6.6,0,0,0,1.12.18" transform="translate(-8.34 -1.5)"/></g></g></g><g id="_Groupe_22" data-name="&lt;Groupe&gt;"><g id="_Groupe_23" data-name="&lt;Groupe&gt;"><path id="_Tracé_transparent_3" data-name="&lt;Tracé transparent&gt;" class="cls-15" d="M44.68,24.23a.6.6,0,0,1,1.12.18,2.15,2.15,0,0,1-.32,1.93.59.59,0,0,1-1.11-.18A2.18,2.18,0,0,1,44.68,24.23ZM45.35,26a1.47,1.47,0,0,0,.22-1.31c-.15-.4-.49-.45-.76-.12a1.47,1.47,0,0,0-.22,1.31.41.41,0,0,0,.76.12" transform="translate(-8.34 -1.5)"/></g><g id="_Groupe_24" data-name="&lt;Groupe&gt;" class="cls-5"><g id="_Groupe_25" data-name="&lt;Groupe&gt;"><path id="_Tracé_50" data-name="&lt;Tracé&gt;" class="cls-16" d="M44.81,24.57c.27-.33.61-.28.76.12A1.47,1.47,0,0,1,45.35,26a.41.41,0,0,1-.76-.12A1.47,1.47,0,0,1,44.81,24.57Z" transform="translate(-8.34 -1.5)"/></g><g id="_Groupe_26" data-name="&lt;Groupe&gt;"><path id="_Tracé_transparent_4" data-name="&lt;Tracé transparent&gt;" class="cls-17" d="M46.22,24.56a.63.63,0,0,1,.1.3,1,1,0,0,1-.21.71.39.39,0,0,1-.2.14h-.1l0,.09a.39.39,0,0,1,.06.11,1.07,1.07,0,0,1-.15.95l0,0a.25.25,0,0,1-.23.09c-.23,0-.29-.18-.32-.36l-.06,0a.94.94,0,0,1,0,.16.8.8,0,0,1-.15.29c-.13.16-.3.21-.44.09a.56.56,0,0,1-.12-.28,1,1,0,0,1,.08-.71l0,0v-.05a.19.19,0,0,1-.1.05c-.23.07-.42-.2-.39-.6a.83.83,0,0,1,.1-.38,1.21,1.21,0,0,1,.14-.22.27.27,0,0,1,.26-.13l0-.09-.06-.11a1,1,0,0,1,.16-.95l0,0a.23.23,0,0,1,.22-.09c.23,0,.3.18.33.36l0,0a.94.94,0,0,1,0-.16.87.87,0,0,1,.15-.29.5.5,0,0,1,.11-.1c.27-.18.5.16.48.62a.81.81,0,0,1-.11.38l0,0v0C45.93,24.36,46.06,24.33,46.22,24.56Zm-.74,1.78a2.15,2.15,0,0,0,.32-1.93.6.6,0,0,0-1.12-.18,2.18,2.18,0,0,0-.31,1.93.59.59,0,0,0,1.11.18" transform="translate(-8.34 -1.5)"/></g></g></g><polygon id="_Tracé_51" data-name="&lt;Tracé&gt;" class="cls-10" points="16.57 44.28 18.9 40.47 22.63 43.89 22.2 47.31 19.31 44.17 17.25 47.46 16.57 44.28"/><polygon id="_Tracé_52" data-name="&lt;Tracé&gt;" class="cls-10" points="17.42 48.26 19.35 45.38 22.1 48.45 22.01 49.25 19.44 46.54 17.61 49.12 17.42 48.26"/><polygon id="_Tracé_53" data-name="&lt;Tracé&gt;" class="cls-10" points="39.73 35.79 41.3 32.02 43.59 33.03 44.27 35.12 41.9 33.74 40.79 37.21 39.73 35.79"/><polygon id="_Tracé_54" data-name="&lt;Tracé&gt;" class="cls-10" points="41.27 37.86 42.27 34.79 44.56 36.01 44.76 36.6 42.62 35.58 41.67 38.41 41.27 37.86"/></g></g><g id="_Groupe_27" data-name="&lt;Groupe&gt;"><g id="_Groupe_28" data-name="&lt;Groupe&gt;"><polygon id="_Tracé_55" data-name="&lt;Tracé&gt;" class="cls-11" points="33.7 8.98 35.25 8.13 31.32 2.73 32.2 2.73 36.44 8.51 34.72 9.77 33.7 8.98"/><polygon id="_Tracé_56" data-name="&lt;Tracé&gt;" class="cls-11" points="31.32 2.73 27.03 0 27.44 1.78 33.14 5.23 31.32 2.73"/><polygon id="_Tracé_57" data-name="&lt;Tracé&gt;" class="cls-4" points="27.99 2.12 28.25 3.56 34.47 7.14 33.14 5.23 27.99 2.12"/><polygon id="_Tracé_58" data-name="&lt;Tracé&gt;" class="cls-11" points="34.66 8.45 35.25 8.13 34.47 7.14 29.06 4.03 29.32 5.39 34.66 8.45"/><polygon id="_Tracé_59" data-name="&lt;Tracé&gt;" class="cls-4" points="30.08 5.83 30.33 7.14 33.7 8.98 34.66 8.45 30.08 5.83"/></g><path id="_Tracé_60" data-name="&lt;Tracé&gt;" class="cls-10" d="M45.78,17.41,45.13,19h0l-.32.76-.72-3.41a2.27,2.27,0,0,1,.08-1.21l.22-.64a8.29,8.29,0,0,0,.44-2.66c0-.16,0-.32,0-.48l-1.13,1.11a1.9,1.9,0,0,0-.51,1.73l.28,1.29-.31.64-.11,0L42.54,16l-.29-1.11a1.88,1.88,0,0,0-1.79-1.41l-3.31,0a2.74,2.74,0,0,0,1.75,1.65l1.47.47a2.28,2.28,0,0,1,1.54,1.68l.72,3.23-8-2.16a1.15,1.15,0,0,0,.31-.64,2.22,2.22,0,0,0-.9-1.87,8.43,8.43,0,0,1-2.13-3.72s-2-6.35,4.17-7.55A7.3,7.3,0,0,1,38,4.38v0c5.46.18,7,5.87,7,5.87l0,.35h0l.33,2.7Z" transform="translate(-8.34 -1.5)"/><path id="_Tracé_61" data-name="&lt;Tracé&gt;" class="cls-11" d="M41.9,17.22l.73,3.23-8-2.16a1.18,1.18,0,0,0,.3-.64l6.63,1.73c-.3-2.09-1.18-3.08-3-3.51s-2.55-3-2.55-3,2.38-.15,4.56-.15,2.47,3,2.47,3l.08.41-.6-.16-.29-1.11a1.88,1.88,0,0,0-1.79-1.41l-3.31,0a2.74,2.74,0,0,0,1.74,1.65l1.47.47A2.25,2.25,0,0,1,41.9,17.22Z" transform="translate(-8.34 -1.5)"/><path id="_Tracé_62" data-name="&lt;Tracé&gt;" class="cls-11" d="M44.51,15.83A21.15,21.15,0,0,0,45.13,19h0l-.32.77-.72-3.42a2.33,2.33,0,0,1,.07-1.2l.22-.65a8,8,0,0,0,.45-2.65c0-.16,0-.33,0-.49l-1.13,1.11a1.88,1.88,0,0,0-.51,1.73l.28,1.29-.31.64s-1-2.84-.42-3.65A9.68,9.68,0,0,1,45,10.58h0l.33,2.71A10.54,10.54,0,0,0,44.51,15.83Z" transform="translate(-8.34 -1.5)"/><g id="_Groupe_29" data-name="&lt;Groupe&gt;"><polygon id="_Tracé_63" data-name="&lt;Tracé&gt;" class="cls-11" points="32.41 7.52 31.73 10.3 33.89 11.09 34.51 9.49 32.41 7.52"/><polygon id="_Tracé_64" data-name="&lt;Tracé&gt;" class="cls-11" points="31.73 8.39 31.27 10.12 28.69 8.39 31.73 8.39"/><polygon id="_Tracé_65" data-name="&lt;Tracé&gt;" class="cls-11" points="33.35 7.71 34.67 8.97 34.9 6.39 33.35 7.71"/></g><g id="_Groupe_30" data-name="&lt;Groupe&gt;"><polygon id="_Tracé_66" data-name="&lt;Tracé&gt;" class="cls-11" points="25.23 13.87 26.78 13.02 22.85 7.62 23.73 7.62 27.97 13.4 26.25 14.66 25.23 13.87"/><polygon id="_Tracé_67" data-name="&lt;Tracé&gt;" class="cls-11" points="22.85 7.62 18.56 4.89 18.97 6.67 24.67 10.12 22.85 7.62"/><polygon id="_Tracé_68" data-name="&lt;Tracé&gt;" class="cls-4" points="19.52 7.01 19.78 8.45 26 12.03 24.67 10.12 19.52 7.01"/><polygon id="_Tracé_69" data-name="&lt;Tracé&gt;" class="cls-11" points="26.19 13.34 26.78 13.02 26 12.03 20.59 8.91 20.85 10.28 26.19 13.34"/><polygon id="_Tracé_70" data-name="&lt;Tracé&gt;" class="cls-4" points="21.61 10.72 21.86 12.03 25.23 13.87 26.19 13.34 21.61 10.72"/></g></g><g id="_Groupe_31" data-name="&lt;Groupe&gt;"><g id="_Groupe_32" data-name="&lt;Groupe&gt;"><g id="_Groupe_33" data-name="&lt;Groupe&gt;" class="cls-5"><path id="_Tracé_71" data-name="&lt;Tracé&gt;" class="cls-6" d="M55,43.8a.34.34,0,0,0-.36,0,1.13,1.13,0,0,0-.52.89.36.36,0,0,0,.15.33l16.36,9.47a.37.37,0,0,1-.15-.33A1.12,1.12,0,0,1,71,53.3a.35.35,0,0,1,.36,0Z" transform="translate(-8.34 -1.5)"/><g id="_Groupe_34" data-name="&lt;Groupe&gt;"><path id="_Tracé_72" data-name="&lt;Tracé&gt;" class="cls-7" d="M71,53.3c.28-.17.51,0,.51.29a1.13,1.13,0,0,1-.51.89c-.29.17-.52,0-.52-.29A1.12,1.12,0,0,1,71,53.3Z" transform="translate(-8.34 -1.5)"/></g></g></g><g id="_Groupe_35" data-name="&lt;Groupe&gt;"><g id="_Groupe_36" data-name="&lt;Groupe&gt;" class="cls-5"><g id="_Groupe_37" data-name="&lt;Groupe&gt;"><polygon id="_Tracé_73" data-name="&lt;Tracé&gt;" class="cls-10" points="62.82 48.4 63.92 47.76 63.9 55.93 62.8 56.57 62.82 48.4"/></g><g id="_Groupe_38" data-name="&lt;Groupe&gt;"><polygon id="_Tracé_74" data-name="&lt;Tracé&gt;" class="cls-18" points="61.91 47.87 63.01 47.23 63.92 47.76 62.82 48.4 61.91 47.87"/></g><g id="_Groupe_39" data-name="&lt;Groupe&gt;"><polygon id="_Tracé_75" data-name="&lt;Tracé&gt;" class="cls-19" points="62.82 48.4 62.8 56.57 61.89 56.05 61.91 47.87 62.82 48.4"/></g></g><g id="_Groupe_40" data-name="&lt;Groupe&gt;" class="cls-5"><g id="_Groupe_41" data-name="&lt;Groupe&gt;"><polygon id="_Tracé_76" data-name="&lt;Tracé&gt;" class="cls-20" points="63.55 51.58 64.65 50.94 64.64 53.61 63.54 54.25 63.55 51.58"/></g><g id="_Groupe_42" data-name="&lt;Groupe&gt;"><polygon id="_Tracé_77" data-name="&lt;Tracé&gt;" class="cls-21" points="62.81 51.16 63.91 50.52 64.65 50.94 63.55 51.58 62.81 51.16"/></g><g id="_Groupe_43" data-name="&lt;Groupe&gt;"><polygon id="_Tracé_78" data-name="&lt;Tracé&gt;" class="cls-22" points="63.55 51.58 63.54 54.25 62.8 53.82 62.81 51.16 63.55 51.58"/></g></g><g id="_Groupe_44" data-name="&lt;Groupe&gt;"><g id="_Groupe_45" data-name="&lt;Groupe&gt;" class="cls-5"><g id="_Groupe_46" data-name="&lt;Groupe&gt;"><polygon id="_Tracé_79" data-name="&lt;Tracé&gt;" class="cls-10" points="63.52 51.53 64.63 50.89 65.31 51.29 64.21 51.93 63.52 51.53"/></g><g id="_Groupe_47" data-name="&lt;Groupe&gt;"><polygon id="_Tracé_80" data-name="&lt;Tracé&gt;" class="cls-18" points="64.21 51.93 65.31 51.29 66.58 51.21 65.48 51.85 64.21 51.93"/></g><g id="_Groupe_48" data-name="&lt;Groupe&gt;"><polygon id="_Tracé_81" data-name="&lt;Tracé&gt;" class="cls-18" points="65.48 51.85 66.58 51.21 76.16 59.37 75.91 59.49 65.48 51.85"/></g><g id="_Groupe_49" data-name="&lt;Groupe&gt;"><polygon id="_Tracé_82" data-name="&lt;Tracé&gt;" class="cls-10" points="65.48 51.85 75.91 59.49 65.47 56.2 64.21 54.66 63.52 54.26 63.52 51.53 64.21 51.93 65.48 51.85"/></g></g><polygon id="_Tracé_83" data-name="&lt;Tracé&gt;" class="cls-19" points="75.91 59.49 65.47 56.2 64.21 54.66 63.52 54.26 63.52 52.98 75.91 59.49"/></g></g></g><g id="_Groupe_50" data-name="&lt;Groupe&gt;"><g id="_Groupe_51" data-name="&lt;Groupe&gt;"><g id="_Groupe_52" data-name="&lt;Groupe&gt;" class="cls-5"><g id="_Groupe_53" data-name="&lt;Groupe&gt;"><polygon id="_Tracé_84" data-name="&lt;Tracé&gt;" class="cls-23" points="25.86 61.55 26.79 61.01 19.43 65.58 18.49 66.13 25.86 61.55"/></g><g id="_Groupe_54" data-name="&lt;Groupe&gt;"><polygon id="_Tracé_85" data-name="&lt;Tracé&gt;" class="cls-7" points="11.21 39.66 12.15 39.11 19.5 40.91 18.56 41.45 11.21 39.66"/></g><g id="_Groupe_55" data-name="&lt;Groupe&gt;"><polygon id="_Tracé_86" data-name="&lt;Tracé&gt;" class="cls-24" points="25.9 48.13 26.83 47.59 26.79 61.01 25.86 61.55 25.9 48.13"/></g><g id="_Groupe_56" data-name="&lt;Groupe&gt;"><polygon id="_Tracé_87" data-name="&lt;Tracé&gt;" class="cls-7" points="18.56 41.45 19.5 40.91 26.83 47.59 25.9 48.13 18.56 41.45"/></g><g id="_Groupe_57" data-name="&lt;Groupe&gt;"><polygon id="_Tracé_88" data-name="&lt;Tracé&gt;" class="cls-25" points="18.56 41.45 25.9 48.13 25.86 61.55 18.49 66.13 11.18 53.08 11.21 39.66 18.56 41.45"/></g></g></g><g id="_Groupe_58" data-name="&lt;Groupe&gt;"><polygon id="_Tracé_89" data-name="&lt;Tracé&gt;" class="cls-19" points="18.56 42.89 24.97 48.73 24.93 60.46 18.5 64.46 12.1 53.05 12.14 41.32 18.56 42.89"/></g><g id="_Groupe_59" data-name="&lt;Groupe&gt;"><polygon id="_Tracé_90" data-name="&lt;Tracé&gt;" class="cls-10" points="18.55 44.45 23.96 49.38 23.94 59.28 18.5 62.65 13.11 53.03 13.13 43.13 18.55 44.45"/></g></g></g></g></g></g></g></g></svg>