<svg xmlns="http://www.w3.org/2000/svg" viewBox="0 0 96 96"><defs><style>.cls-1{fill:none;opacity:0.15;}.cls-2{isolation:isolate;}.cls-3{fill:#87501f;}.cls-4{fill:#c08329;}.cls-5{fill:#cda349;}.cls-6{fill:#ca974d;}</style></defs><title>weapon_Fichier 25</title><g id="Calque_2" data-name="Calque 2"><g id="Calque_1-2" data-name="Calque 1"><rect class="cls-1" width="96" height="96"/><g id="_Groupe_" data-name="&lt;Groupe&gt;"><g id="_Groupe_2" data-name="&lt;Groupe&gt;" class="cls-2"><path id="_Tracé_" data-name="&lt;Tracé&gt;" class="cls-3" d="M85.55,23.55a.48.48,0,0,1,.47,0,1.45,1.45,0,0,1,.65,1.13.45.45,0,0,1-.19.42L44.35,49.49a.47.47,0,0,0,.19-.42,1.44,1.44,0,0,0-.66-1.13.46.46,0,0,0-.46,0Z"/><g id="_Groupe_3" data-name="&lt;Groupe&gt;"><path id="_Tracé_2" data-name="&lt;Tracé&gt;" class="cls-4" d="M43.88,47.94c-.36-.21-.65,0-.65.38a1.45,1.45,0,0,0,.65,1.13c.36.21.66,0,.66-.38A1.44,1.44,0,0,0,43.88,47.94Z"/></g></g></g><g id="_Groupe_4" data-name="&lt;Groupe&gt;"><g id="_Groupe_5" data-name="&lt;Groupe&gt;"><g id="_Groupe_6" data-name="&lt;Groupe&gt;" class="cls-2"><path id="_Tracé_3" data-name="&lt;Tracé&gt;" class="cls-3" d="M24.06,58.1a.49.49,0,0,1,.49,0c.37.21.93,2.5.93,2.93a.48.48,0,0,1-.19.44l6.64-4.11h0l15.14-9.35a.5.5,0,0,0,.2-.44,1.5,1.5,0,0,0-.67-1.17.49.49,0,0,0-.49-.05L30.83,54.51Z"/></g></g><path id="_Tracé_4" data-name="&lt;Tracé&gt;" class="cls-5" d="M24.06,58.1a.49.49,0,0,1,.49,0c.37.21.93,2.5.93,2.93a.48.48,0,0,1-.19.44l6.64-4.11h0a2.22,2.22,0,0,0-1.46-2.71Z"/><g id="_Groupe_7" data-name="&lt;Groupe&gt;"><g id="_Groupe_8" data-name="&lt;Groupe&gt;" class="cls-2"><g id="_Groupe_9" data-name="&lt;Groupe&gt;"><polygon id="_Tracé_5" data-name="&lt;Tracé&gt;" class="cls-4" points="25.37 57.62 23.71 56.65 23.72 61.09 25.38 62.05 25.37 57.62"/></g><g id="_Groupe_10" data-name="&lt;Groupe&gt;"><polygon id="_Tracé_6" data-name="&lt;Tracé&gt;" class="cls-6" points="21.06 62.27 19.39 61.3 17.72 63.67 19.38 64.63 21.06 62.27"/></g><g id="_Groupe_11" data-name="&lt;Groupe&gt;"><polygon id="_Tracé_7" data-name="&lt;Tracé&gt;" class="cls-4" points="19.38 64.63 17.72 63.67 17.73 67.39 19.39 68.36 19.38 64.63"/></g><g id="_Groupe_12" data-name="&lt;Groupe&gt;"><polygon id="_Tracé_8" data-name="&lt;Tracé&gt;" class="cls-6" points="19.39 68.36 17.73 67.39 14.33 69.36 15.99 70.32 19.39 68.36"/></g><g id="_Groupe_13" data-name="&lt;Groupe&gt;"><polygon id="_Tracé_9" data-name="&lt;Tracé&gt;" class="cls-6" points="15.99 70.32 14.33 69.36 11.03 69.1 12.7 70.06 15.99 70.32"/></g><g id="_Groupe_14" data-name="&lt;Groupe&gt;"><polygon id="_Tracé_10" data-name="&lt;Tracé&gt;" class="cls-6" points="27.04 55.68 25.38 54.71 17.08 52.51 18.74 53.47 27.04 55.68"/></g><g id="_Groupe_15" data-name="&lt;Groupe&gt;"><polygon id="_Tracé_11" data-name="&lt;Tracé&gt;" class="cls-6" points="18.74 53.47 17.08 52.51 9.33 61.35 10.99 62.31 18.74 53.47"/></g><g id="_Groupe_16" data-name="&lt;Groupe&gt;"><polygon id="_Tracé_12" data-name="&lt;Tracé&gt;" class="cls-3" points="18.74 53.47 10.99 62.31 11.02 72.15 15.55 72.5 21.08 69.31 21.06 62.27 19.38 64.63 19.39 68.36 15.99 70.32 12.7 70.06 12.67 62.55 18.57 55.81 25.37 57.62 25.38 62.05 27.06 61.09 27.04 55.68 18.74 53.47"/></g><g id="_Groupe_17" data-name="&lt;Groupe&gt;"><polygon id="_Tracé_13" data-name="&lt;Tracé&gt;" class="cls-4" points="10.99 62.31 9.33 61.35 9.36 71.19 11.02 72.15 10.99 62.31"/></g></g></g></g></g></g></svg>