<svg xmlns="http://www.w3.org/2000/svg" viewBox="0 0 96 96"><defs><style>.cls-1{isolation:isolate;}.cls-2{fill:none;opacity:0.15;}.cls-3{fill:#cc7d35;}.cls-4{fill:#8a5424;}.cls-5{fill:#b3b4b4;}.cls-6{fill:#e0e0e0;}.cls-7{fill:#c58d3a;}.cls-8{fill:#d3d1d3;mix-blend-mode:multiply;}</style></defs><title>weapon_Fichier 24</title><g class="cls-1"><g id="Calque_2" data-name="Calque 2"><g id="Calque_1-2" data-name="Calque 1"><rect class="cls-2" width="96" height="96"/><g id="_Groupe_" data-name="&lt;Groupe&gt;"><g id="_Groupe_2" data-name="&lt;Groupe&gt;"><g id="_Groupe_3" data-name="&lt;Groupe&gt;"><g id="_Groupe_4" data-name="&lt;Groupe&gt;" class="cls-1"><g id="_Groupe_5" data-name="&lt;Groupe&gt;"><polygon id="_Tracé_" data-name="&lt;Tracé&gt;" class="cls-3" points="36.84 23.42 34.92 19.35 44.58 39.41 46.49 43.49 36.84 23.42"/></g><g id="_Groupe_6" data-name="&lt;Groupe&gt;"><polygon id="_Tracé_2" data-name="&lt;Tracé&gt;" class="cls-3" points="27.99 27.62 26.07 23.54 34.92 19.35 36.84 23.42 27.99 27.62"/></g><g id="_Groupe_7" data-name="&lt;Groupe&gt;"><path id="_Tracé_3" data-name="&lt;Tracé&gt;" class="cls-4" d="M36.84,23.42l9.65,20.07c.68,1.41-.75,3.5-3.2,4.66a7,7,0,0,1-3.49.73,2.49,2.49,0,0,1-2.17-1.19L28,27.62Z"/></g></g></g><g id="_Groupe_8" data-name="&lt;Groupe&gt;"><polygon id="_Tracé_4" data-name="&lt;Tracé&gt;" class="cls-4" points="28.45 26.32 27.34 23.96 34.43 20.59 35.54 22.95 28.45 26.32"/></g></g><g id="_Groupe_9" data-name="&lt;Groupe&gt;"><g id="_Groupe_10" data-name="&lt;Groupe&gt;"><g id="_Groupe_11" data-name="&lt;Groupe&gt;"><polygon id="_Tracé_5" data-name="&lt;Tracé&gt;" class="cls-5" points="31.7 18.04 32.04 18.75 30.02 18.82 29.68 18.11 31.7 18.04"/></g><g id="_Groupe_12" data-name="&lt;Groupe&gt;" class="cls-1"><g id="_Groupe_13" data-name="&lt;Groupe&gt;"><polygon id="_Tracé_6" data-name="&lt;Tracé&gt;" class="cls-5" points="33.83 16.14 34.17 16.85 32.84 18.37 32.5 17.66 33.83 16.14"/></g><g id="_Groupe_14" data-name="&lt;Groupe&gt;"><polygon id="_Tracé_7" data-name="&lt;Tracé&gt;" class="cls-6" points="31.25 17.11 31.7 18.04 29.68 18.11 30.02 18.82 32.04 18.75 31.7 18.04 32.48 19.66 30.45 19.73 29.23 17.18 31.25 17.11"/></g><g id="_Groupe_15" data-name="&lt;Groupe&gt;"><polygon id="_Tracé_8" data-name="&lt;Tracé&gt;" class="cls-6" points="34.61 17.77 33.28 19.28 32.84 18.37 34.17 16.85 33.83 16.14 32.5 17.66 32.06 16.73 33.38 15.22 34.61 17.77"/></g></g><g id="_Groupe_16" data-name="&lt;Groupe&gt;"><polygon id="_Tracé_9" data-name="&lt;Tracé&gt;" class="cls-7" points="32.06 16.73 35.16 23.13 34.36 23.51 32.48 19.66 31.7 18.04 31.25 17.11 32.06 16.73"/></g></g><polygon id="_Tracé_10" data-name="&lt;Tracé&gt;" class="cls-5" points="30.45 19.73 30.84 20.61 32.92 20.56 32.48 19.66 30.45 19.73"/><polygon id="_Tracé_11" data-name="&lt;Tracé&gt;" class="cls-6" points="30.85 20.61 31.23 21.48 33.35 21.45 32.92 20.56 30.85 20.61"/><polygon id="_Tracé_12" data-name="&lt;Tracé&gt;" class="cls-5" points="34.61 17.77 34.99 18.6 33.7 20.12 33.28 19.28 34.61 17.77"/><polygon id="_Tracé_13" data-name="&lt;Tracé&gt;" class="cls-6" points="34.99 18.6 35.41 19.44 34.12 20.95 33.7 20.12 34.99 18.6"/></g><g id="_Groupe_17" data-name="&lt;Groupe&gt;"><g id="_Groupe_18" data-name="&lt;Groupe&gt;"><g id="_Groupe_19" data-name="&lt;Groupe&gt;"><polygon id="_Tracé_14" data-name="&lt;Tracé&gt;" class="cls-5" points="25.95 19.83 26.29 20.54 24.27 20.61 23.93 19.9 25.95 19.83"/></g><g id="_Groupe_20" data-name="&lt;Groupe&gt;" class="cls-1"><g id="_Groupe_21" data-name="&lt;Groupe&gt;"><polygon id="_Tracé_15" data-name="&lt;Tracé&gt;" class="cls-5" points="28.08 17.94 28.43 18.64 27.1 20.16 26.76 19.45 28.08 17.94"/></g><g id="_Groupe_22" data-name="&lt;Groupe&gt;"><polygon id="_Tracé_16" data-name="&lt;Tracé&gt;" class="cls-6" points="25.51 18.91 25.95 19.83 23.93 19.9 24.27 20.61 26.29 20.54 25.95 19.83 26.73 21.45 24.71 21.53 23.48 18.98 25.51 18.91"/></g><g id="_Groupe_23" data-name="&lt;Groupe&gt;"><polygon id="_Tracé_17" data-name="&lt;Tracé&gt;" class="cls-6" points="28.87 19.56 27.54 21.07 27.1 20.16 28.43 18.64 28.08 17.94 26.76 19.45 26.31 18.52 27.64 17.01 28.87 19.56"/></g></g><g id="_Groupe_24" data-name="&lt;Groupe&gt;"><polygon id="_Tracé_18" data-name="&lt;Tracé&gt;" class="cls-7" points="26.31 18.52 29.82 25.75 29.02 26.14 26.73 21.45 25.95 19.83 25.51 18.91 26.31 18.52"/></g></g><polygon id="_Tracé_19" data-name="&lt;Tracé&gt;" class="cls-5" points="24.71 21.53 25.09 22.4 27.17 22.36 26.73 21.45 24.71 21.53"/><polygon id="_Tracé_20" data-name="&lt;Tracé&gt;" class="cls-6" points="25.11 22.4 25.48 23.27 27.61 23.24 27.17 22.36 25.11 22.4"/><polygon id="_Tracé_21" data-name="&lt;Tracé&gt;" class="cls-5" points="28.87 19.56 29.25 20.39 27.96 21.91 27.54 21.07 28.87 19.56"/><polygon id="_Tracé_22" data-name="&lt;Tracé&gt;" class="cls-6" points="29.25 20.39 29.66 21.23 28.37 22.75 27.95 21.91 29.25 20.39"/><polygon id="_Tracé_23" data-name="&lt;Tracé&gt;" class="cls-8" points="25.87 18.73 26.31 18.52 28.04 22.08 27.45 22.11 25.87 18.73"/></g><polygon id="_Tracé_24" data-name="&lt;Tracé&gt;" class="cls-8" points="30.96 17.12 32.37 20.19 31.23 21.48 29.23 17.18 30.96 17.12"/><g id="_Groupe_25" data-name="&lt;Groupe&gt;"><g id="_Groupe_26" data-name="&lt;Groupe&gt;"><g id="_Groupe_27" data-name="&lt;Groupe&gt;"><polygon id="_Tracé_25" data-name="&lt;Tracé&gt;" class="cls-5" points="28.4 18.64 28.74 19.35 26.72 19.42 26.38 18.71 28.4 18.64"/></g><g id="_Groupe_28" data-name="&lt;Groupe&gt;" class="cls-1"><g id="_Groupe_29" data-name="&lt;Groupe&gt;"><polygon id="_Tracé_26" data-name="&lt;Tracé&gt;" class="cls-5" points="30.53 16.75 30.87 17.45 29.54 18.97 29.2 18.26 30.53 16.75"/></g><g id="_Groupe_30" data-name="&lt;Groupe&gt;"><polygon id="_Tracé_27" data-name="&lt;Tracé&gt;" class="cls-6" points="27.95 17.71 28.4 18.64 26.38 18.71 26.72 19.42 28.74 19.35 28.4 18.64 29.18 20.26 27.16 20.34 25.93 17.79 27.95 17.71"/></g><g id="_Groupe_31" data-name="&lt;Groupe&gt;"><polygon id="_Tracé_28" data-name="&lt;Tracé&gt;" class="cls-6" points="31.31 18.37 29.98 19.88 29.54 18.97 30.87 17.45 30.53 16.75 29.2 18.26 28.76 17.33 30.08 15.82 31.31 18.37"/></g></g><g id="_Groupe_32" data-name="&lt;Groupe&gt;"><polygon id="_Tracé_29" data-name="&lt;Tracé&gt;" class="cls-7" points="28.76 17.33 32.27 24.56 31.46 24.95 29.18 20.26 28.4 18.64 27.95 17.71 28.76 17.33"/></g></g><polygon id="_Tracé_30" data-name="&lt;Tracé&gt;" class="cls-5" points="27.16 20.34 27.54 21.21 29.62 21.16 29.18 20.26 27.16 20.34"/><polygon id="_Tracé_31" data-name="&lt;Tracé&gt;" class="cls-6" points="27.55 21.21 27.93 22.08 30.05 22.05 29.62 21.16 27.55 21.21"/><polygon id="_Tracé_32" data-name="&lt;Tracé&gt;" class="cls-5" points="31.31 18.37 31.69 19.2 30.4 20.72 29.98 19.88 31.31 18.37"/><polygon id="_Tracé_33" data-name="&lt;Tracé&gt;" class="cls-6" points="31.69 19.2 32.11 20.04 30.82 21.56 30.4 20.72 31.69 19.2"/></g></g><g id="_Groupe_33" data-name="&lt;Groupe&gt;"><g id="_Groupe_34" data-name="&lt;Groupe&gt;" class="cls-1"><g id="_Groupe_35" data-name="&lt;Groupe&gt;"><path id="_Tracé_34" data-name="&lt;Tracé&gt;" class="cls-3" d="M18.92,31.14l1.51-.54a.6.6,0,0,1,.58.16l-1.52.55A.57.57,0,0,0,18.92,31.14Z"/></g><g id="_Groupe_36" data-name="&lt;Groupe&gt;"><path id="_Tracé_35" data-name="&lt;Tracé&gt;" class="cls-3" d="M46.49,67.67c-7.88-6.69-14.34-16-16.07-23.2a21.86,21.86,0,0,0-6.51-11.25L21,30.76l-1.52.55,2.91,2.46A21.87,21.87,0,0,1,28.9,45C30.64,52.21,37.1,61.53,45,68.21Z"/></g><g id="_Groupe_37" data-name="&lt;Groupe&gt;"><path id="_Tracé_36" data-name="&lt;Tracé&gt;" class="cls-4" d="M44.62,70.11c-8.47-7.18-15.2-17-17.13-25A18.25,18.25,0,0,0,22,35.67l-2.9-2.46a1.84,1.84,0,0,1-.56-1.58c.09-.52.5-.67.91-.32l2.91,2.46A21.87,21.87,0,0,1,28.9,45C30.64,52.21,37.1,61.53,45,68.21Z"/></g></g></g><g id="_Groupe_38" data-name="&lt;Groupe&gt;"><g id="_Groupe_39" data-name="&lt;Groupe&gt;" class="cls-1"><g id="_Groupe_40" data-name="&lt;Groupe&gt;"><path id="_Tracé_37" data-name="&lt;Tracé&gt;" class="cls-4" d="M66.18,76.41l1.51-.55a4.23,4.23,0,0,0-1.06.58,5.56,5.56,0,0,1-1.48.8l-1.52.55a5.92,5.92,0,0,0,1.49-.8A3.93,3.93,0,0,1,66.18,76.41Z"/></g><g id="_Groupe_41" data-name="&lt;Groupe&gt;"><path id="_Tracé_38" data-name="&lt;Tracé&gt;" class="cls-3" d="M45,68.21c7.05,6,14,8.76,17.88,7.34L64.36,75c-3.93,1.42-10.82-1.35-17.87-7.33Z"/><path id="_Tracé_39" data-name="&lt;Tracé&gt;" class="cls-3" d="M76.86,78.15,74,75.68c-2.45-2.08-5-2.79-7.06-2.05l-1.51.55c2.06-.74,4.6,0,7.05,2l2.91,2.46a1.85,1.85,0,0,1,.57,1.58.59.59,0,0,1-.34.49l1.52-.55a.58.58,0,0,0,.33-.48A1.83,1.83,0,0,0,76.86,78.15Z"/></g><g id="_Groupe_42" data-name="&lt;Groupe&gt;"><path id="_Tracé_40" data-name="&lt;Tracé&gt;" class="cls-4" d="M45,68.21c7.88,6.68,15.56,9.36,19.13,6.67,2.23-1.69,5.35-1.19,8.33,1.35l2.91,2.46a1.85,1.85,0,0,1,.57,1.58c-.1.53-.51.67-.92.32l-2.91-2.46c-2.5-2.12-5.1-2.55-7-1.14-4,3-12,.31-20.5-6.88Z"/></g></g></g></g></g></g></svg>