<svg xmlns="http://www.w3.org/2000/svg" viewBox="0 0 96 96"><defs><style>.cls-1{fill:none;opacity:0.15;}.cls-2{fill:#c69c6d;}.cls-3{fill:#a16733;}.cls-4{isolation:isolate;}.cls-5{fill:#8c6239;}.cls-6{fill:#ffe89b;}.cls-7{fill:#603813;}</style></defs><title>weapon_Fichier 26</title><g id="Calque_2" data-name="Calque 2"><g id="Calque_1-2" data-name="Calque 1"><rect class="cls-1" width="96" height="96"/><g id="_Groupe_" data-name="&lt;Groupe&gt;"><path id="_Tracé_" data-name="&lt;Tracé&gt;" class="cls-2" d="M15.29,28.23a2.38,2.38,0,1,1-2.37-2.38A2.38,2.38,0,0,1,15.29,28.23Z"/><path id="_Tracé_2" data-name="&lt;Tracé&gt;" class="cls-3" d="M14.38,27.86a.49.49,0,0,0-.49.05,1.52,1.52,0,0,0-.7,1.2.48.48,0,0,0,.2.44l3,1.76a.47.47,0,0,1-.21-.44,1.55,1.55,0,0,1,.7-1.2.5.5,0,0,1,.49-.05Z"/><polygon class="cls-3" points="16.47 29.09 21.91 31.99 23.91 32.99 22.91 34.99 22.91 34.99 22.91 35.99 13.23 29.34 16.47 29.09"/></g><g id="_Groupe_2" data-name="&lt;Groupe&gt;"><path id="_Tracé_3" data-name="&lt;Tracé&gt;" class="cls-3" d="M22.33,32.23a.69.69,0,0,0-.67.07,2.06,2.06,0,0,0-.93,1.61.66.66,0,0,0,.27.59l4,2.35a.64.64,0,0,1-.27-.59,2,2,0,0,1,.93-1.61.64.64,0,0,1,.66-.06Z"/><g id="_Groupe_3" data-name="&lt;Groupe&gt;"><g id="_Groupe_4" data-name="&lt;Groupe&gt;"><g id="_Groupe_5" data-name="&lt;Groupe&gt;" class="cls-4"><g id="_Groupe_6" data-name="&lt;Groupe&gt;"><polygon id="_Tracé_4" data-name="&lt;Tracé&gt;" class="cls-5" points="25.25 29.66 26.87 28.72 26.84 41.08 25.22 42.02 25.25 29.66"/></g><g id="_Groupe_7" data-name="&lt;Groupe&gt;"><polygon id="_Tracé_5" data-name="&lt;Tracé&gt;" class="cls-6" points="24.4 29.16 26.01 28.23 26.87 28.72 25.25 29.66 24.4 29.16"/></g><g id="_Groupe_8" data-name="&lt;Groupe&gt;"><polygon id="_Tracé_6" data-name="&lt;Tracé&gt;" class="cls-2" points="25.25 29.66 25.22 42.02 24.2 41.43 22.07 34.09 24.4 29.16 25.25 29.66"/></g></g></g></g><g id="_Groupe_9" data-name="&lt;Groupe&gt;"><g id="_Groupe_10" data-name="&lt;Groupe&gt;"><polygon id="_Tracé_7" data-name="&lt;Tracé&gt;" class="cls-5" points="79.4 68.48 25.82 37.55 25.82 33.37 79.4 64.3 85.46 70.15 79.4 68.48"/><polygon id="_Tracé_8" data-name="&lt;Tracé&gt;" class="cls-7" points="85.46 70.15 25.82 35.72 25.82 37.55 79.4 68.48 85.46 70.15"/></g><polygon id="_Tracé_9" data-name="&lt;Tracé&gt;" class="cls-2" points="85.46 70.15 79.4 64.3 25.82 33.37 26.34 33.08 79.65 63.85 85.46 70.15"/></g></g></g></g></svg>