<svg xmlns="http://www.w3.org/2000/svg" viewBox="0 0 96 96"><defs><style>.cls-1{fill:none;opacity:0.15;}.cls-2{isolation:isolate;}.cls-3{fill:#767769;}.cls-4{fill:#e0e0e0;}.cls-5{fill:#d3d1d3;}.cls-6{fill:#efeff0;}.cls-7{fill:#b0acb0;}.cls-8{fill:#7d8589;}.cls-9{fill:#d9d4d9;}.cls-10{fill:#c9c5c9;}.cls-11{fill:#dbdbdb;}.cls-12{fill:#c0bec2;}.cls-13{fill:#d1d2d3;}</style></defs><title>weapon_Fichier 28</title><g id="Calque_2" data-name="Calque 2"><g id="Calque_1-2" data-name="Calque 1"><rect class="cls-1" width="96" height="96"/><g id="_Groupe_" data-name="&lt;Groupe&gt;"><g id="_Groupe_2" data-name="&lt;Groupe&gt;" class="cls-2"><path id="_Tracé_" data-name="&lt;Tracé&gt;" class="cls-3" d="M6.3,37.06a.54.54,0,0,0-.54,0A1.67,1.67,0,0,0,5,38.42a.55.55,0,0,0,.22.49L49.31,64.39a.51.51,0,0,1-.22-.48,1.65,1.65,0,0,1,.75-1.32.54.54,0,0,1,.54-.05Z"/><g id="_Groupe_3" data-name="&lt;Groupe&gt;"><path id="_Tracé_2" data-name="&lt;Tracé&gt;" class="cls-4" d="M49.84,62.59c.42-.24.76,0,.77.44a1.67,1.67,0,0,1-.76,1.31c-.42.24-.76,0-.76-.43A1.65,1.65,0,0,1,49.84,62.59Z"/></g></g></g><g id="_Groupe_4" data-name="&lt;Groupe&gt;"><g id="_Groupe_5" data-name="&lt;Groupe&gt;"><g id="_Groupe_6" data-name="&lt;Groupe&gt;" class="cls-2"><path id="_Tracé_3" data-name="&lt;Tracé&gt;" class="cls-3" d="M47.55,60.91A.54.54,0,0,0,47,61a1.63,1.63,0,0,0-.75,1.31.53.53,0,0,0,.22.49L70.57,76.7a.53.53,0,0,1-.22-.49,1.67,1.67,0,0,1,.76-1.31.54.54,0,0,1,.54-.05Z"/><g id="_Groupe_7" data-name="&lt;Groupe&gt;"><path id="_Tracé_4" data-name="&lt;Tracé&gt;" class="cls-4" d="M71.11,74.9c.42-.24.76-.05.76.43a1.69,1.69,0,0,1-.76,1.32c-.42.24-.76,0-.76-.44A1.67,1.67,0,0,1,71.11,74.9Z"/></g></g></g><g id="_Groupe_8" data-name="&lt;Groupe&gt;"><g id="_Groupe_9" data-name="&lt;Groupe&gt;" class="cls-2"><g id="_Groupe_10" data-name="&lt;Groupe&gt;"><polygon id="_Tracé_5" data-name="&lt;Tracé&gt;" class="cls-5" points="71.35 69.89 72.97 68.95 72.94 80.99 71.31 81.93 71.35 69.89"/></g><g id="_Groupe_11" data-name="&lt;Groupe&gt;"><polygon id="_Tracé_6" data-name="&lt;Tracé&gt;" class="cls-6" points="70.01 69.12 71.63 68.17 72.97 68.95 71.35 69.89 70.01 69.12"/></g><g id="_Groupe_12" data-name="&lt;Groupe&gt;"><polygon id="_Tracé_7" data-name="&lt;Tracé&gt;" class="cls-7" points="71.35 69.89 71.31 81.93 69.97 81.16 70.01 69.12 71.35 69.89"/></g></g><g id="_Groupe_13" data-name="&lt;Groupe&gt;" class="cls-2"><g id="_Groupe_14" data-name="&lt;Groupe&gt;"><polygon id="_Tracé_8" data-name="&lt;Tracé&gt;" class="cls-8" points="72.42 74.58 74.04 73.64 74.03 77.57 72.41 78.51 72.42 74.58"/></g><g id="_Groupe_15" data-name="&lt;Groupe&gt;"><polygon id="_Tracé_9" data-name="&lt;Tracé&gt;" class="cls-9" points="71.34 73.96 72.96 73.01 74.04 73.64 72.42 74.58 71.34 73.96"/></g><g id="_Groupe_16" data-name="&lt;Groupe&gt;"><polygon id="_Tracé_10" data-name="&lt;Tracé&gt;" class="cls-10" points="72.42 74.58 72.41 78.51 71.33 77.89 71.34 73.96 72.42 74.58"/></g></g><g id="_Groupe_17" data-name="&lt;Groupe&gt;"><g id="_Groupe_18" data-name="&lt;Groupe&gt;" class="cls-2"><g id="_Groupe_19" data-name="&lt;Groupe&gt;"><polygon id="_Tracé_11" data-name="&lt;Tracé&gt;" class="cls-5" points="72.39 74.51 74.01 73.57 75.02 74.15 73.4 75.1 72.39 74.51"/></g><g id="_Groupe_20" data-name="&lt;Groupe&gt;"><polygon id="_Tracé_12" data-name="&lt;Tracé&gt;" class="cls-6" points="73.4 75.1 75.02 74.15 76.89 74.03 75.27 74.97 73.4 75.1"/></g><g id="_Groupe_21" data-name="&lt;Groupe&gt;"><polygon id="_Tracé_13" data-name="&lt;Tracé&gt;" class="cls-6" points="75.27 74.97 76.89 74.03 91 86.06 90.63 86.23 75.27 74.97"/></g><g id="_Groupe_22" data-name="&lt;Groupe&gt;"><polygon id="_Tracé_14" data-name="&lt;Tracé&gt;" class="cls-5" points="75.27 74.97 90.63 86.23 75.25 81.38 73.39 79.11 72.38 78.53 72.39 74.51 73.4 75.1 75.27 74.97"/></g></g><polygon id="_Tracé_15" data-name="&lt;Tracé&gt;" class="cls-7" points="90.63 86.23 75.25 81.38 73.39 79.11 72.38 78.53 72.38 76.64 90.63 86.23"/></g></g></g><g id="_Groupe_23" data-name="&lt;Groupe&gt;"><g id="_Groupe_24" data-name="&lt;Groupe&gt;"><g id="_Groupe_25" data-name="&lt;Groupe&gt;" class="cls-2"><g id="_Groupe_26" data-name="&lt;Groupe&gt;"><polygon id="_Tracé_16" data-name="&lt;Tracé&gt;" class="cls-11" points="67.51 53.98 69.33 53.56 54.79 57.39 52.96 57.82 67.51 53.98"/></g><g id="_Groupe_27" data-name="&lt;Groupe&gt;"><polygon id="_Tracé_17" data-name="&lt;Tracé&gt;" class="cls-4" points="54.35 10.19 56.17 9.77 67.46 16.48 65.63 16.91 54.35 10.19"/></g><g id="_Groupe_28" data-name="&lt;Groupe&gt;"><polygon id="_Tracé_18" data-name="&lt;Tracé&gt;" class="cls-12" points="74.4 31.73 76.23 31.3 69.33 53.56 67.51 53.98 74.4 31.73"/></g><g id="_Groupe_29" data-name="&lt;Groupe&gt;"><polygon id="_Tracé_19" data-name="&lt;Tracé&gt;" class="cls-4" points="65.63 16.91 67.46 16.48 76.23 31.3 74.4 31.73 65.63 16.91"/></g><g id="_Groupe_30" data-name="&lt;Groupe&gt;"><polygon id="_Tracé_20" data-name="&lt;Tracé&gt;" class="cls-13" points="65.63 16.91 74.4 31.73 67.51 53.98 52.96 57.82 47.46 32.45 54.35 10.19 65.63 16.91"/></g></g></g><g id="_Groupe_31" data-name="&lt;Groupe&gt;"><polygon id="_Tracé_21" data-name="&lt;Tracé&gt;" class="cls-7" points="64.89 19.3 72.55 32.25 66.53 51.7 53.82 55.05 49.01 32.88 55.03 13.43 64.89 19.3"/></g><g id="_Groupe_32" data-name="&lt;Groupe&gt;"><polygon id="_Tracé_22" data-name="&lt;Tracé&gt;" class="cls-5" points="64.09 21.89 70.56 32.82 65.48 49.23 54.75 52.06 50.69 33.35 55.77 16.93 64.09 21.89"/></g></g></g></g></svg>